<svg xmlns="http://www.w3.org/2000/svg" width="412" height="116" viewBox="0 0 412 116" fill="none">
  <defs>
    <pattern id="whatsapp-pattern" patternUnits="userSpaceOnUse" width="412" height="116">
      <!-- Doodle icons pattern inspired by WhatsApp -->
      <g fill="currentColor" fill-opacity="0.06">
        <!-- Row 1 -->
        <circle cx="20" cy="20" r="4"/>
        <rect x="60" y="16" width="8" height="8" rx="1"/>
        <path d="M110 14 L118 22 L110 22 Z"/>
        <circle cx="160" cy="20" r="6" fill="none" stroke="currentColor" stroke-width="1.5"/>
        <rect x="200" y="14" width="12" height="12" rx="2" fill="none" stroke="currentColor" stroke-width="1.5"/>
        <path d="M260 16 Q268 12 268 20 Q268 28 260 24" fill="none" stroke="currentColor" stroke-width="1.5"/>
        <circle cx="310" cy="20" r="3"/>
        <path d="M350 14 L358 14 L354 22 Z"/>
        <circle cx="400" cy="20" r="5" fill="none" stroke="currentColor" stroke-width="1.5"/>
        
        <!-- Row 2 -->
        <rect x="40" y="50" width="6" height="6" rx="1"/>
        <circle cx="90" cy="54" r="5"/>
        <path d="M130 48 L138 56 L130 56 Z"/>
        <circle cx="180" cy="54" r="4" fill="none" stroke="currentColor" stroke-width="1.5"/>
        <rect x="220" y="48" width="10" height="10" rx="1.5" fill="none" stroke="currentColor" stroke-width="1.5"/>
        <circle cx="270" cy="54" r="6"/>
        <path d="M320 50 Q328 46 328 54 Q328 62 320 58" fill="none" stroke="currentColor" stroke-width="1.5"/>
        <rect x="360" y="50" width="8" height="8" rx="1"/>
        
        <!-- Row 3 -->
        <circle cx="30" cy="90" r="5" fill="none" stroke="currentColor" stroke-width="1.5"/>
        <rect x="70" y="86" width="8" height="8" rx="1.5"/>
        <path d="M120 84 L128 92 L120 92 Z"/>
        <circle cx="170" cy="90" r="4"/>
        <rect x="210" y="84" width="12" height="12" rx="2" fill="none" stroke="currentColor" stroke-width="1.5"/>
        <circle cx="260" cy="90" r="5"/>
        <path d="M310 86 Q318 82 318 90 Q318 98 310 94" fill="none" stroke="currentColor" stroke-width="1.5"/>
        <rect x="350" y="86" width="6" height="6" rx="1"/>
        <circle cx="400" cy="90" r="4" fill="none" stroke="currentColor" stroke-width="1.5"/>
      </g>
    </pattern>
  </defs>
  <rect width="100%" height="100%" fill="url(#whatsapp-pattern)"/>
</svg>